<?xml version="1.0" encoding="iso-8859-1"?>
<!-- Generator: Adobe Illustrator 19.0.0, SVG Export Plug-In . SVG Version: 6.00 Build 0)  -->
<svg version="1.1" id="Layer_1" xmlns="http://www.w3.org/2000/svg" xmlns:xlink="http://www.w3.org/1999/xlink" x="0px" y="0px"
	 viewBox="0 0 512 512" style="enable-background:new 0 0 512 512;" xml:space="preserve">
<path style="fill:#E8EDEE;" d="M0,361.931V79.448C0,54.731,19.421,35.31,44.138,35.31h423.724C492.579,35.31,512,54.731,512,79.448
	v282.483c0,24.717-19.421,44.138-44.138,44.138H44.138C19.421,406.069,0,386.648,0,361.931"/>
<path style="fill:#CBD4D8;" d="M57.379,70.621h397.241c12.359,0,22.069,9.71,22.069,22.069v256c0,12.359-9.71,22.069-22.069,22.069
	H57.379c-12.359,0-22.069-9.71-22.069-22.069v-256C35.31,80.331,45.021,70.621,57.379,70.621"/>
<path style="fill:#E8EDEE;" d="M70.621,300.138h158.897V141.241H70.621V300.138z"/>
<g>
	<path style="fill:#38454F;" d="M185.379,264.828h-17.655c-5.297,0-8.828-3.531-8.828-8.828c0-5.297,3.531-8.828,8.828-8.828h17.655
		c5.297,0,8.828,3.531,8.828,8.828C194.207,261.297,190.676,264.828,185.379,264.828"/>
	<path style="fill:#38454F;" d="M132.414,264.828h-17.655c-5.297,0-8.828-3.531-8.828-8.828c0-5.297,3.531-8.828,8.828-8.828h17.655
		c5.297,0,8.828,3.531,8.828,8.828C141.241,261.297,137.71,264.828,132.414,264.828"/>
	<path style="fill:#38454F;" d="M150.069,211.862c-5.297,0-8.828-3.531-8.828-8.828v-26.483c0-5.297,3.531-8.828,8.828-8.828
		s8.828,3.531,8.828,8.828v26.483C158.897,208.331,155.366,211.862,150.069,211.862"/>
	<path style="fill:#38454F;" d="M414.897,300.138H308.966c-14.124,0-26.483-11.476-26.483-26.483v-69.738
		c0-11.476,4.414-22.952,13.241-30.897l22.069-22.952c6.179-6.179,14.124-8.828,22.069-8.828h45.021
		c7.945,0,15.89,3.531,22.069,8.828l22.069,22.069c7.945,7.945,13.241,19.421,13.241,30.897v70.621
		C441.379,288.662,429.903,300.138,414.897,300.138"/>
</g>
<g>
	<path style="fill:#546A79;" d="M494.345,476.69c-2.648,0-4.414-0.883-6.179-2.648c-11.476-11.476-38.841-12.359-56.497-6.179
		c-30.014,11.476-62.676-1.766-73.269-29.131c-3.531-7.062-5.297-15.007-5.297-23.835V247.172c0-5.297,3.531-8.828,8.828-8.828
		s8.828,3.531,8.828,8.828v167.724c0,6.179,0.883,12.359,3.531,17.655c7.945,18.538,30.014,27.366,51.2,19.421
		c22.952-8.828,58.262-7.062,75.034,9.71c3.531,3.531,3.531,8.828,0,12.359C498.759,475.807,496.993,476.69,494.345,476.69"/>
	<path style="fill:#546A79;" d="M370.759,229.517h-17.655c-5.297,0-8.828-3.531-8.828-8.828s3.531-8.828,8.828-8.828h17.655
		c5.297,0,8.828,3.531,8.828,8.828S376.055,229.517,370.759,229.517"/>
</g>
<g>
</g>
<g>
</g>
<g>
</g>
<g>
</g>
<g>
</g>
<g>
</g>
<g>
</g>
<g>
</g>
<g>
</g>
<g>
</g>
<g>
</g>
<g>
</g>
<g>
</g>
<g>
</g>
<g>
</g>
</svg>
