<?xml version="1.0" encoding="iso-8859-1"?>
<!-- Generator: Adobe Illustrator 19.0.0, SVG Export Plug-In . SVG Version: 6.00 Build 0)  -->
<svg version="1.1" id="Layer_1" xmlns="http://www.w3.org/2000/svg" xmlns:xlink="http://www.w3.org/1999/xlink" x="0px" y="0px"
	 viewBox="0 0 512.002 512.002" style="enable-background:new 0 0 512.002 512.002;" xml:space="preserve">
<rect x="239.376" y="289.141" style="fill:#575759;" width="33.251" height="173.837"/>
<rect x="256.002" y="289.141" style="fill:#474748;" width="16.626" height="173.837"/>
<rect x="164.317" y="445.5" style="fill:#2A2A2A;" width="183.38" height="44.938"/>
<rect x="256.002" y="445.5" width="91.685" height="44.938"/>
<rect x="143.601" y="478.751" style="fill:#575759;" width="224.789" height="33.251"/>
<rect x="256.002" y="478.751" style="fill:#474748;" width="112.4" height="33.251"/>
<g>
	<rect x="364.268" y="289.141" style="fill:#D9BA2C;" width="15.042" height="67.346"/>
	<path style="fill:#D9BA2C;" d="M371.786,389.085c-11.418,0-20.708-9.205-20.708-20.519c0-11.314,9.289-20.519,20.708-20.519
		c11.418,0,20.708,9.205,20.708,20.519C392.493,379.88,383.204,389.085,371.786,389.085z"/>
</g>
<path style="fill:#E69824;" d="M451.554,305.768H60.448L141.42,0h229.161L451.554,305.768z"/>
<polygon style="fill:#CF8920;" points="370.581,0 256.001,0 256.001,305.768 451.554,305.768 "/>
<g>
	<polygon style="fill:#F1CE30;" points="118.833,85.297 110.027,118.548 401.975,118.548 393.17,85.297 	"/>
	<polygon style="fill:#F1CE30;" points="428.966,220.471 420.161,187.22 91.842,187.22 83.035,220.471 	"/>
</g>
<g>
	<polygon style="fill:#D9BA2C;" points="256.001,118.548 401.975,118.548 393.17,85.297 256.001,85.297 	"/>
	<polygon style="fill:#D9BA2C;" points="428.966,220.471 420.161,187.22 256.001,187.22 256.001,220.471 	"/>
</g>
<g>
</g>
<g>
</g>
<g>
</g>
<g>
</g>
<g>
</g>
<g>
</g>
<g>
</g>
<g>
</g>
<g>
</g>
<g>
</g>
<g>
</g>
<g>
</g>
<g>
</g>
<g>
</g>
<g>
</g>
</svg>
