<svg xmlns="http://www.w3.org/2000/svg" style="display: none;"><symbol id="socket" viewBox="0 0 512 512"><title>socket</title><path style="fill:#E8EDEE;" d="M0,361.931V79.448C0,54.731,19.421,35.31,44.138,35.31h423.724C492.579,35.31,512,54.731,512,79.448 v282.483c0,24.717-19.421,44.138-44.138,44.138H44.138C19.421,406.069,0,386.648,0,361.931"/><path style="fill:#CBD4D8;" d="M57.379,70.621h397.241c12.359,0,22.069,9.71,22.069,22.069v256c0,12.359-9.71,22.069-22.069,22.069 H57.379c-12.359,0-22.069-9.71-22.069-22.069v-256C35.31,80.331,45.021,70.621,57.379,70.621"/><path style="fill:#E8EDEE;" d="M70.621,300.138h158.897V141.241H70.621V300.138z"/><g> <path style="fill:#38454F;" d="M185.379,264.828h-17.655c-5.297,0-8.828-3.531-8.828-8.828c0-5.297,3.531-8.828,8.828-8.828h17.655 c5.297,0,8.828,3.531,8.828,8.828C194.207,261.297,190.676,264.828,185.379,264.828"/> <path style="fill:#38454F;" d="M132.414,264.828h-17.655c-5.297,0-8.828-3.531-8.828-8.828c0-5.297,3.531-8.828,8.828-8.828h17.655 c5.297,0,8.828,3.531,8.828,8.828C141.241,261.297,137.71,264.828,132.414,264.828"/> <path style="fill:#38454F;" d="M150.069,211.862c-5.297,0-8.828-3.531-8.828-8.828v-26.483c0-5.297,3.531-8.828,8.828-8.828 s8.828,3.531,8.828,8.828v26.483C158.897,208.331,155.366,211.862,150.069,211.862"/> <path style="fill:#38454F;" d="M414.897,300.138H308.966c-14.124,0-26.483-11.476-26.483-26.483v-69.738 c0-11.476,4.414-22.952,13.241-30.897l22.069-22.952c6.179-6.179,14.124-8.828,22.069-8.828h45.021 c7.945,0,15.89,3.531,22.069,8.828l22.069,22.069c7.945,7.945,13.241,19.421,13.241,30.897v70.621 C441.379,288.662,429.903,300.138,414.897,300.138"/> </g><g> <path style="fill:#546A79;" d="M494.345,476.69c-2.648,0-4.414-0.883-6.179-2.648c-11.476-11.476-38.841-12.359-56.497-6.179 c-30.014,11.476-62.676-1.766-73.269-29.131c-3.531-7.062-5.297-15.007-5.297-23.835V247.172c0-5.297,3.531-8.828,8.828-8.828 s8.828,3.531,8.828,8.828v167.724c0,6.179,0.883,12.359,3.531,17.655c7.945,18.538,30.014,27.366,51.2,19.421 c22.952-8.828,58.262-7.062,75.034,9.71c3.531,3.531,3.531,8.828,0,12.359C498.759,475.807,496.993,476.69,494.345,476.69"/> <path style="fill:#546A79;" d="M370.759,229.517h-17.655c-5.297,0-8.828-3.531-8.828-8.828s3.531-8.828,8.828-8.828h17.655 c5.297,0,8.828,3.531,8.828,8.828S376.055,229.517,370.759,229.517"/> </g></symbol><symbol id="fan" viewBox="0 0 512 512"><title>fan</title><circle style="fill:#E4EAF6;" cx="256" cy="176.552" r="132.414"/><g> <polygon style="fill:#464655;" points="273.655,176.552 238.345,176.552 220.69,459.034 291.31,459.034 "/> <path style="fill:#464655;" d="M353.103,512H158.897c-4.875,0-8.828-3.953-8.828-8.828v-17.655c0-4.875,3.953-8.828,8.828-8.828 h194.207c4.875,0,8.828,3.953,8.828,8.828v17.655C361.931,508.047,357.978,512,353.103,512z"/> </g><path style="fill:#707487;" d="M315.651,459.034H196.349c-7.023,0-13.76,2.791-18.727,7.756l-9.898,9.899h176.552l-9.899-9.899 C329.411,461.825,322.675,459.034,315.651,459.034z"/><g> <path style="fill:#00BEFF;" d="M255.658,144.473l67.588-77.245c6.063-6.93,16.725-7.285,23.236-0.774l0.026,0.026 c17.841,17.841,16.868,47.052-2.12,63.667l-54.963,48.093"/> <path style="fill:#00BEFF;" d="M254.31,210.663l-67.588,77.245c-6.063,6.93-16.725,7.285-23.236,0.773l-0.026-0.026 c-17.841-17.841-16.868-47.052,2.12-63.667l54.963-48.093"/> <path style="fill:#00BEFF;" d="M288.078,178.242l77.245,67.588c6.93,6.063,7.285,16.725,0.774,23.236l-0.026,0.026 c-17.841,17.841-47.052,16.868-63.667-2.12l-48.093-54.963"/> <path style="fill:#00BEFF;" d="M221.889,176.894l-77.245-67.588c-6.93-6.063-7.285-16.725-0.774-23.236l0.026-0.026 c17.841-17.841,47.052-16.868,63.667,2.12l48.093,54.963"/> </g><circle style="fill:#464655;" cx="255.823" cy="177.567" r="35.31"/><path style="fill:#707487;" d="M256,0C158.65,0,79.448,79.198,79.448,176.552S158.65,353.103,256,353.103 s176.552-79.198,176.552-176.552S353.35,0,256,0z M414.897,176.552c0,25.77-6.302,50.048-17.237,71.594l-124.004-71.594 l124.004-71.594C408.595,126.504,414.897,150.782,414.897,176.552z M388.863,89.65l-124.035,71.613V18.102 C316.687,20.973,361.973,48.678,388.863,89.65z M247.172,18.102v143.159L123.137,89.65 C150.027,48.678,195.313,20.973,247.172,18.102z M114.34,104.958l124.004,71.594L114.34,248.146 c-10.935-21.546-17.237-45.824-17.237-71.594S103.405,126.504,114.34,104.958z M123.137,263.454l124.035-71.613V335 C195.313,332.13,150.027,304.426,123.137,263.454z M264.828,335.001v-143.16l124.035,71.612 C361.973,304.426,316.687,332.13,264.828,335.001z"/><g> <circle style="fill:#00BEFF;" cx="256" cy="388.414" r="13.241"/> <circle style="fill:#00BEFF;" cx="256" cy="428.138" r="13.241"/> </g></symbol><symbol id="lamp" viewBox="0 0 512.002 512.002"><title>lamp</title><rect x="239.376" y="289.141" style="fill:#575759;" width="33.251" height="173.837"/><rect x="256.002" y="289.141" style="fill:#474748;" width="16.626" height="173.837"/><rect x="164.317" y="445.5" style="fill:#2A2A2A;" width="183.38" height="44.938"/><rect x="256.002" y="445.5" width="91.685" height="44.938"/><rect x="143.601" y="478.751" style="fill:#575759;" width="224.789" height="33.251"/><rect x="256.002" y="478.751" style="fill:#474748;" width="112.4" height="33.251"/><g> <rect x="364.268" y="289.141" style="fill:#D9BA2C;" width="15.042" height="67.346"/> <path style="fill:#D9BA2C;" d="M371.786,389.085c-11.418,0-20.708-9.205-20.708-20.519c0-11.314,9.289-20.519,20.708-20.519 c11.418,0,20.708,9.205,20.708,20.519C392.493,379.88,383.204,389.085,371.786,389.085z"/> </g><path style="fill:#E69824;" d="M451.554,305.768H60.448L141.42,0h229.161L451.554,305.768z"/><polygon style="fill:#CF8920;" points="370.581,0 256.001,0 256.001,305.768 451.554,305.768 "/><g> <polygon style="fill:#F1CE30;" points="118.833,85.297 110.027,118.548 401.975,118.548 393.17,85.297 "/> <polygon style="fill:#F1CE30;" points="428.966,220.471 420.161,187.22 91.842,187.22 83.035,220.471 "/> </g><g> <polygon style="fill:#D9BA2C;" points="256.001,118.548 401.975,118.548 393.17,85.297 256.001,85.297 "/> <polygon style="fill:#D9BA2C;" points="428.966,220.471 420.161,187.22 256.001,187.22 256.001,220.471 "/> </g></symbol><symbol id="computer" viewBox="0 0 460.233 460.233"><title>computer</title><polygon style="fill:#D8D9DD;" points="309.125,441.463 151.34,441.463 171.063,352.014 289.402,352.014 "/><rect x="131.636" y="431.298" style="fill:#D8D9DD;" width="197.193" height="18.296"/><path style="fill:#59595A;" d="M439.677,75.537c0.012,0,0.226,0.139,0.226,0.151v255.997H20.562V75.688 c0-0.012,0.149-0.151,0.161-0.151H439.677L439.677,75.537z M460.233,203.61V75.652c0-10.847-9.672-20.444-20.52-20.444l0,0H20.687 c-10.847,0-20.454,9.597-20.454,20.444V203.61v0.003v127.959c0,10.848,9.607,20.444,20.454,20.444h419.026l0,0 c10.848,0,20.52-9.597,20.52-20.444V203.613V203.61z"/><path style="fill:#90C5FF;" d="M439.677,75.537c0.012,0,0.226,0.139,0.226,0.151v255.997H20.562V75.688 c0-0.012,0.149-0.151,0.161-0.151H439.677L439.677,75.537z"/><rect x="131.636" y="431.298" style="opacity:0.4;fill:#5B5B5F;enable-background:new ;" width="197.193" height="18.296"/><g> <g> <polygon style="opacity:0.2;fill:#FFFFFF;enable-background:new ;" points="180.309,362.12 152.963,374.159 0,27.043 27.335,14.99 "/> </g> <g> <polygon style="opacity:0.2;fill:#FFFFFF;enable-background:new ;" points="232.33,357.771 204.974,369.809 52.01,22.692 79.325,10.639 "/> </g> </g></symbol></svg>